<?xml version="1.0" standalone="no"?>
<!DOCTYPE svg PUBLIC "-//W3C//DTD SVG 20010904//EN"
 "http://www.w3.org/TR/2001/REC-SVG-20010904/DTD/svg10.dtd">
<svg version="1.0" xmlns="http://www.w3.org/2000/svg"
 width="512.000000pt" height="512.000000pt" viewBox="0 0 512.000000 512.000000"
 preserveAspectRatio="xMidYMid meet">
<metadata>
Created by potrace 1.14, written by Peter Selinger 2001-2017
</metadata>
<g transform="translate(0.000000,512.000000) scale(0.100000,-0.100000)"
fill="#000000" stroke="none">
<path d="M1540 4529 c0 -5 -3 -9 -7 -8 -17 2 -52 -14 -48 -21 3 -5 1 -11 -5
-15 -7 -4 -10 -228 -10 -659 l0 -653 25 -29 25 -29 404 -3 c344 -2 405 -5 410
-17 3 -8 2 -15 -2 -15 -4 0 -8 -8 -8 -17 -1 -10 -5 -40 -9 -68 -4 -27 -8 -57
-8 -65 0 -8 -3 -19 -7 -25 -4 -5 -6 -18 -5 -27 3 -15 -5 -17 -59 -14 -57 2
-63 1 -73 -21 -7 -14 -7 -23 -1 -23 5 0 6 -4 3 -10 -4 -6 137 -10 397 -10
l404 0 2 26 c2 29 -16 39 -68 37 -68 -3 -68 -3 -93 177 -2 8 -7 21 -11 29 -7
11 -6 12 5 6 11 -7 12 -6 2 7 -7 8 -10 18 -6 21 3 4 183 7 399 7 344 0 395 2
408 16 9 8 16 12 16 7 0 -4 9 3 20 17 19 24 20 45 20 678 0 491 -3 651 -12
646 -7 -4 -8 -3 -4 5 4 6 0 18 -8 27 -9 8 -16 12 -16 7 0 -4 -5 -1 -10 8 -8
14 -107 16 -1040 16 -566 0 -1030 -4 -1030 -8z"/>
<path d="M2706 2537 c4 -10 3 -17 -2 -16 -21 3 -24 -2 -13 -22 8 -15 8 -19 0
-15 -7 5 -11 -1 -11 -14 0 -14 4 -19 13 -14 6 4 3 -2 -7 -14 -12 -14 -14 -22
-7 -22 7 0 9 -5 6 -11 -5 -7 -14 -5 -29 4 -16 11 -27 12 -41 4 -14 -7 -20 -7
-23 1 -2 7 -8 12 -13 12 -6 0 -7 -4 -4 -10 3 -6 -1 -7 -9 -4 -9 4 -16 1 -16
-6 0 -9 -4 -9 -12 -2 -15 11 -42 -10 -30 -24 4 -4 -1 -4 -12 0 -13 5 -17 2
-13 -9 4 -8 1 -17 -5 -21 -7 -4 -8 -3 -4 4 4 7 2 12 -3 12 -6 0 -11 -6 -11
-14 0 -8 -5 -16 -11 -18 -6 -2 -12 -15 -12 -30 -2 -19 -5 -24 -14 -16 -6 5
-10 15 -7 22 3 8 -2 20 -10 28 -11 11 -12 18 -3 27 6 6 8 12 4 12 -4 1 -11 3
-17 4 -5 1 -15 3 -21 4 -5 0 -7 6 -4 11 3 6 -1 10 -10 10 -10 0 -13 5 -9 13 5
8 2 8 -9 -2 -9 -7 -17 -9 -17 -4 0 5 -29 10 -65 9 -51 0 -65 -3 -60 -13 2 -8
1 -12 -4 -9 -5 3 -20 -3 -33 -14 -14 -11 -28 -16 -32 -12 -4 3 -4 -1 0 -11 4
-11 1 -17 -7 -17 -7 0 -10 -3 -6 -6 3 -4 -1 -13 -9 -21 -10 -11 -12 -19 -5
-27 7 -9 5 -20 -6 -36 -9 -13 -12 -20 -6 -17 7 5 10 -7 9 -33 -1 -22 2 -40 7
-40 5 0 7 -7 4 -15 -4 -8 -1 -17 5 -21 7 -5 8 -2 3 6 -5 9 -4 11 4 6 6 -4 9
-11 6 -16 -8 -13 41 -61 64 -63 12 -1 21 -6 21 -11 0 -5 3 -7 6 -4 3 4 19 2
35 -2 20 -6 29 -5 29 3 0 7 4 6 10 -3 8 -12 10 -12 10 -1 0 8 7 11 20 8 11 -3
23 -1 26 4 3 5 11 9 17 9 7 0 6 -4 -3 -10 -8 -5 -10 -10 -5 -10 6 1 19 7 29
15 10 8 22 12 27 10 4 -3 6 6 4 20 -1 14 2 25 7 25 5 0 7 4 3 9 -3 5 -1 12 4
16 6 3 8 -5 5 -20 -3 -20 1 -27 21 -35 14 -5 25 -12 25 -15 0 -4 -5 -3 -12 1
-7 4 -8 3 -4 -4 4 -6 14 -8 23 -5 11 4 14 3 9 -5 -7 -11 11 -17 42 -13 6 1 12
-3 12 -9 0 -7 6 -8 18 -2 9 4 29 8 44 7 15 0 24 3 22 7 -3 4 0 8 5 8 6 0 11
-8 12 -17 0 -11 3 -13 6 -6 3 9 10 10 24 3 14 -8 19 -7 19 1 0 8 4 8 15 -1 13
-11 15 -8 15 14 0 14 6 26 13 26 8 0 7 4 -3 10 -13 9 -13 10 0 10 13 0 13 2 1
9 -12 8 -12 12 -2 25 11 13 11 16 0 16 -10 0 -10 3 -1 12 16 16 15 31 0 23 -7
-4 -5 0 5 8 14 11 15 16 5 20 -10 4 -10 8 2 16 11 8 12 11 2 11 -8 0 -10 5 -5
13 4 6 6 20 5 30 -2 9 3 17 10 17 10 0 10 2 -1 9 -9 6 -10 10 -2 16 9 5 9 11
-1 23 -11 12 -11 16 0 20 10 3 10 7 0 20 -7 9 -8 13 -2 9 7 -4 11 5 12 24 0
20 -3 27 -11 23 -8 -5 -8 -3 1 7 6 7 12 24 12 37 0 16 4 21 13 16 8 -5 8 -2
-2 9 -16 20 -25 22 -16 5 4 -7 -1 -4 -10 7 -13 15 -19 16 -22 7 -4 -10 -9 -8
-19 5 -13 17 -14 17 -8 0z m-401 -190 c7 -9 15 -14 18 -10 4 3 7 -6 7 -21 0
-16 -4 -25 -10 -21 -5 3 -10 0 -10 -7 0 -9 -3 -9 -10 2 -7 11 -10 11 -10 2 0
-10 -5 -10 -20 -2 -11 6 -20 7 -20 2 0 -11 -68 -8 -78 3 -4 5 -1 4 7 0 11 -6
13 -4 8 7 -7 19 27 53 42 43 6 -3 11 -1 11 5 0 6 4 8 10 5 18 -11 51 -14 45
-4 -4 5 -10 7 -15 4 -5 -3 -11 -1 -14 4 -11 16 26 5 39 -12z m333 -6 c6 -1 12
-9 12 -18 0 -15 2 -16 10 -3 9 13 10 13 11 0 0 -8 2 -25 3 -38 2 -13 -2 -26
-7 -29 -6 -3 -7 -1 -3 5 3 6 2 13 -3 16 -10 7 -9 -13 2 -31 4 -6 3 -14 -3 -18
-6 -4 -7 -12 -1 -24 6 -10 6 -23 1 -31 -5 -8 -6 -18 -4 -22 3 -4 0 -9 -5 -9
-21 -3 -26 -4 -38 -12 -7 -5 -17 -5 -23 -2 -5 3 -10 0 -10 -7 0 -10 -2 -10 -9
0 -4 8 -12 13 -16 11 -4 -1 -15 4 -26 11 -15 11 -16 17 -6 29 8 10 8 13 1 8
-7 -4 -14 0 -18 8 -3 8 -1 17 4 20 6 4 10 12 10 18 0 7 -4 6 -11 -3 -7 -11 -8
-6 -3 20 3 19 10 40 15 46 5 6 5 15 1 19 -4 5 -1 5 6 1 7 -4 12 -1 12 8 0 9 7
16 16 16 8 0 13 3 11 8 -4 6 8 7 71 3z m-375 -119 c12 6 22 6 31 -1 9 -7 16
-7 24 1 9 9 12 9 12 -2 0 -11 3 -11 12 -2 16 16 31 15 22 0 -5 -9 -2 -9 9 1
13 10 17 10 17 1 0 -10 3 -10 15 0 9 7 18 10 22 6 3 -3 1 -6 -5 -6 -13 0 -12
-21 2 -31 4 -4 3 -15 -4 -25 -9 -15 -10 -16 -6 -2 3 12 1 15 -9 11 -8 -3 -12
-10 -8 -17 4 -6 -2 -4 -12 4 -10 8 -16 10 -13 5 4 -6 -2 -17 -14 -24 -16 -10
-19 -10 -12 1 6 10 4 10 -9 -1 -10 -8 -31 -12 -52 -9 -19 2 -35 0 -35 -5 0 -4
-5 -5 -10 -2 -6 4 -8 11 -5 16 3 5 0 6 -8 3 -21 -8 -50 35 -36 53 6 7 15 10
20 7 5 -3 6 2 2 12 -5 14 -3 15 13 6 13 -7 25 -7 37 0z m-63 -6 c0 -3 -4 -8
-10 -11 -5 -3 -10 -1 -10 4 0 6 5 11 10 11 6 0 10 -2 10 -4z"/>
<path d="M1927 2506 c4 -5 -1 -7 -9 -3 -12 4 -14 1 -11 -14 3 -10 1 -19 -4
-19 -5 0 -10 -15 -11 -32 -3 -46 -12 -69 -23 -63 -5 4 -5 -5 1 -20 7 -19 7
-24 -2 -19 -8 5 -9 2 -5 -9 3 -9 2 -19 -4 -23 -6 -3 -8 -12 -6 -18 3 -7 -1
-13 -9 -13 -8 0 -14 4 -14 9 0 5 -4 6 -10 3 -6 -3 -7 1 -4 9 4 11 0 16 -11 16
-14 0 -15 3 -5 15 10 12 8 14 -9 10 -11 -2 -20 -1 -20 3 3 20 -2 32 -11 27 -6
-3 -7 1 -4 9 4 9 1 16 -6 16 -7 0 -10 7 -6 15 3 8 2 14 -2 14 -4 -1 -14 -1
-22 0 -13 1 -13 2 0 11 9 6 10 10 3 10 -6 0 -19 7 -28 16 -10 11 -19 13 -28 6
-7 -5 -24 -8 -39 -7 -15 2 -31 -1 -34 -7 -4 -6 -3 -8 2 -5 6 3 10 -5 10 -18 0
-13 -3 -22 -6 -20 -4 2 -7 -2 -7 -10 0 -8 4 -12 9 -9 4 3 8 -1 8 -10 0 -8 -6
-17 -12 -19 -8 -3 -6 -6 5 -6 9 -1 17 -6 17 -12 0 -5 -5 -7 -11 -3 -6 3 -3 -5
6 -20 11 -17 13 -26 6 -26 -7 0 -9 -5 -4 -12 4 -7 8 -21 9 -30 3 -37 4 -39 17
-32 10 6 10 4 0 -7 -15 -16 -17 -33 -3 -24 7 4 7 -3 0 -20 -7 -19 -7 -24 2
-19 7 5 9 2 5 -8 -3 -9 0 -21 6 -28 9 -10 9 -11 -3 -5 -12 7 -13 6 -4 -6 6 -8
10 -24 9 -36 -1 -12 2 -20 7 -17 5 4 9 0 7 -7 -1 -8 -1 -24 0 -37 1 -19 5 -22
29 -18 15 2 32 5 38 5 6 1 11 17 12 36 1 21 -3 33 -8 30 -6 -4 -7 3 0 19 5 14
5 28 1 31 -5 3 -8 13 -6 23 1 9 -4 28 -12 41 -8 13 -10 21 -5 17 7 -4 9 2 6
16 -3 13 -7 32 -8 43 -2 11 -4 24 -5 28 0 5 -5 5 -11 2 -5 -3 -10 -1 -10 4 0
6 12 11 26 11 20 0 25 -4 20 -16 -4 -10 -2 -13 6 -8 7 5 9 0 6 -14 -3 -12 -3
-20 1 -19 13 4 61 -48 56 -61 -3 -8 0 -10 7 -6 7 5 9 2 6 -8 -4 -8 -1 -15 5
-16 7 0 22 -3 34 -6 13 -2 26 0 29 6 5 7 2 8 -6 3 -9 -5 -11 -4 -6 3 4 7 15
12 24 13 11 0 13 2 4 6 -10 4 -10 8 0 21 10 12 10 14 1 8 -9 -5 -11 -2 -7 8 3
9 10 14 14 11 5 -3 6 4 3 15 -3 12 0 20 8 20 7 0 9 3 6 7 -4 3 -2 12 5 20 9
11 7 12 -8 7 -18 -5 -18 -5 -1 9 22 18 23 27 5 38 -9 6 -6 8 9 6 32 -4 38 -14
22 -34 -9 -11 -10 -14 -1 -9 6 4 12 2 12 -3 0 -6 -6 -11 -12 -11 -9 0 -8 -3 2
-9 8 -6 17 -8 21 -5 4 2 5 -5 2 -16 -3 -11 -10 -17 -17 -14 -6 3 -3 -1 6 -8
11 -10 14 -19 8 -28 -6 -10 -3 -21 7 -32 10 -12 12 -18 4 -18 -9 0 -9 -5 -1
-20 6 -11 8 -20 4 -20 -3 0 -1 -7 6 -15 6 -8 9 -18 6 -23 -3 -6 1 -15 9 -22
12 -10 15 -10 16 1 0 8 4 5 9 -6 5 -11 9 -14 9 -6 1 7 7 11 15 8 20 -8 28 4
14 20 -9 11 -7 12 7 6 15 -5 17 -3 11 13 -5 10 -9 25 -9 32 0 6 -5 12 -11 12
-6 0 -4 5 4 10 12 8 12 10 1 10 -8 0 -11 3 -8 7 4 3 1 13 -6 21 -10 13 -9 15
7 9 17 -7 17 -6 5 9 -8 9 -12 28 -11 42 3 15 0 22 -7 18 -14 -9 -14 0 0 26 9
16 8 19 -2 13 -9 -6 -11 -2 -7 12 3 12 2 27 -3 34 -5 8 -3 17 4 21 8 5 7 8 -3
8 -9 0 -16 9 -17 20 -1 13 2 18 10 14 8 -5 8 -3 0 7 -7 7 -13 24 -13 37 0 16
-4 21 -12 16 -10 -6 -10 -5 -1 7 20 25 -2 44 -51 44 -25 0 -42 -4 -39 -9z"/>
<path d="M2891 2498 c0 -10 -6 -18 -12 -18 -5 0 -7 5 -3 11 4 7 1 10 -7 7 -8
-3 -13 -13 -13 -22 1 -9 -2 -16 -7 -16 -5 0 -5 -7 -2 -17 4 -9 2 -14 -3 -10
-11 6 -13 -37 -2 -48 3 -3 5 1 5 11 -1 9 4 19 12 22 9 3 11 0 6 -8 -6 -10 -4
-12 8 -7 10 4 17 1 17 -6 0 -8 4 -6 10 3 7 11 10 11 10 2 0 -10 3 -10 14 0 8
7 12 17 9 21 -3 4 0 13 5 20 12 15 -11 52 -27 43 -5 -3 -12 2 -14 11 -4 17 -5
17 -6 1z"/>
<path d="M2861 2384 c-1 -7 -10 -14 -22 -17 -17 -5 -19 -9 -10 -26 8 -14 8
-22 -1 -27 -7 -5 -8 -3 -3 6 5 9 4 11 -4 6 -9 -6 -9 -11 -1 -21 8 -9 8 -15 0
-20 -5 -3 -8 -17 -6 -31 3 -13 1 -24 -4 -24 -5 0 -6 -7 -3 -17 4 -10 2 -14 -5
-9 -6 3 -14 1 -18 -5 -4 -7 -3 -9 3 -6 14 9 24 -18 12 -30 -5 -5 -10 -28 -11
-51 -1 -26 -5 -39 -12 -35 -6 3 -8 3 -4 -2 4 -4 3 -14 -4 -22 -8 -11 -7 -12 6
-7 11 4 16 1 16 -13 0 -15 7 -19 35 -19 20 0 37 6 40 14 3 8 0 10 -8 6 -9 -6
-9 -4 -1 7 9 12 12 25 16 77 1 6 6 12 11 12 5 0 4 6 -2 14 -8 10 -9 16 -1 21
6 3 8 11 5 16 -4 5 0 9 7 9 9 0 9 3 -2 10 -9 6 -10 10 -3 10 7 0 10 10 7 26
-3 14 -1 23 4 20 5 -3 9 1 9 9 0 8 -5 15 -11 15 -5 0 -1 7 10 15 10 8 14 15 8
15 -6 0 -11 7 -11 15 0 9 4 11 11 6 7 -6 11 -1 12 17 1 15 -1 21 -3 15 -3 -10
-8 -9 -20 2 -8 8 -18 13 -23 10 -5 -3 -11 1 -13 7 -4 8 -6 9 -6 2z"/>
<path d="M1245 2340 c-3 -5 -17 -10 -31 -10 -13 0 -24 -5 -24 -10 0 -7 -7 -7
-21 1 -15 8 -19 8 -15 0 5 -7 -4 -14 -23 -17 -18 -4 -28 -11 -24 -17 4 -6 0
-8 -11 -4 -9 4 -15 3 -12 -2 6 -9 -22 -26 -37 -22 -5 1 -6 -3 -3 -8 4 -5 0
-16 -8 -24 -8 -8 -13 -17 -10 -20 3 -3 -1 -15 -8 -27 -11 -18 -11 -23 0 -27
10 -4 10 -8 1 -19 -9 -11 -8 -15 6 -20 13 -5 14 -9 3 -15 -10 -7 -9 -9 4 -9
10 0 17 -5 15 -12 -1 -6 18 -22 43 -35 25 -13 36 -21 25 -18 -16 5 -17 4 -8
-6 10 -10 17 -9 34 7 13 10 19 13 15 7 -4 -8 -1 -13 9 -13 9 0 14 4 11 9 -4 5
12 8 34 6 22 -2 40 1 40 6 0 5 5 9 11 9 5 0 7 -6 4 -12 -4 -7 0 -5 8 4 12 16
16 16 35 2 20 -14 21 -13 15 2 -6 15 -4 15 19 0 29 -19 40 -47 27 -67 -5 -8
-9 -9 -9 -4 0 6 -7 -1 -14 -15 -8 -14 -13 -27 -11 -30 2 -3 -13 -6 -33 -8 -21
-1 -39 -7 -40 -12 -2 -6 -9 -7 -15 -3 -18 11 -47 11 -54 0 -3 -6 -1 -7 5 -3 6
3 13 2 16 -3 4 -5 -2 -8 -11 -6 -10 2 -22 4 -26 4 -5 1 -6 5 -3 10 3 4 -6 6
-19 3 -14 -2 -33 2 -43 9 -15 13 -16 12 -3 -3 11 -15 11 -18 0 -19 -8 0 -5 -4
6 -9 13 -6 15 -9 5 -9 -13 -1 -13 -2 0 -11 10 -6 11 -10 3 -10 -7 0 -13 -5
-13 -11 0 -5 5 -7 10 -4 6 3 10 1 10 -5 0 -6 -11 -8 -25 -6 -14 3 -25 1 -25
-3 0 -4 -7 -8 -15 -8 -12 0 -12 3 -2 16 9 12 9 13 0 7 -8 -4 -13 -1 -13 8 0 9
-8 16 -17 17 -16 0 -15 1 1 8 19 7 19 8 -3 14 -17 4 -22 11 -17 22 4 11 2 14
-6 9 -8 -5 -9 -2 -5 9 4 12 1 17 -9 17 -10 0 -14 6 -10 15 3 8 1 15 -5 15 -6
0 -9 7 -6 14 4 11 1 13 -11 9 -15 -6 -16 -5 -2 12 12 15 12 17 1 10 -11 -6
-13 -4 -7 10 6 16 4 16 -10 4 -16 -13 -16 -12 -5 10 7 13 8 21 3 17 -6 -3 -13
-2 -17 4 -3 5 0 10 7 10 10 0 9 3 -2 9 -8 6 -19 7 -25 3 -5 -3 -4 1 2 10 7 8
10 18 7 21 -4 4 4 4 16 2 12 -2 20 -2 17 2 -4 3 -2 15 4 26 9 15 8 18 -2 12
-9 -6 -10 -3 -5 11 4 10 4 15 0 11 -4 -4 -13 1 -21 11 -8 9 -12 12 -9 6 5 -10
-45 -29 -66 -25 -4 0 -5 -6 -2 -14 4 -9 0 -15 -9 -15 -23 0 -67 -26 -83 -49
-14 -19 -13 -22 10 -31 14 -5 26 -12 26 -15 0 -4 -4 -3 -10 0 -6 3 -7 -1 -4
-10 6 -13 8 -13 23 4 14 16 19 17 34 6 9 -6 14 -15 10 -18 -3 -4 -1 -7 6 -7 8
0 11 -6 7 -16 -3 -8 -2 -13 3 -9 5 3 17 -13 27 -34 10 -22 21 -38 24 -36 4 2
5 -8 3 -23 -4 -21 -2 -24 6 -12 9 12 11 11 11 -7 0 -12 5 -23 10 -25 6 -2 12
-13 13 -25 0 -12 5 -19 9 -17 4 3 8 -3 8 -13 0 -11 5 -24 12 -31 9 -9 7 -12
-11 -12 -17 0 -22 -4 -17 -16 3 -8 2 -12 -4 -9 -18 11 -10 -9 15 -40 l24 -29
10 24 c5 14 10 19 10 13 1 -7 6 -13 11 -13 6 0 9 6 8 13 -2 6 5 11 15 11 16
-2 22 8 18 29 -1 5 3 6 9 2 6 -3 7 -12 4 -18 -4 -7 3 -2 15 11 12 12 26 20 32
17 5 -4 9 -1 9 5 0 7 7 10 18 6 15 -5 15 -4 2 6 -17 14 -20 32 -6 45 5 5 6 3
2 -4 -4 -7 -3 -13 1 -13 5 0 15 6 22 13 11 10 14 9 18 -1 4 -10 10 -9 24 4 18
17 19 17 13 1 -5 -15 -3 -16 17 -8 13 5 27 8 31 7 3 0 10 3 15 8 5 5 2 6 -6 1
-10 -6 -12 -4 -7 4 5 8 12 9 19 2 14 -11 51 11 40 23 -4 4 1 4 11 0 13 -5 17
-4 13 3 -5 7 1 9 15 5 12 -3 19 -1 15 5 -3 5 3 15 13 23 10 8 16 18 13 24 -4
5 1 7 11 3 10 -4 15 -3 11 3 -3 6 -2 10 4 10 5 0 8 11 7 25 -2 13 1 22 5 19 5
-3 9 2 9 11 0 9 -5 14 -12 10 -7 -3 -5 0 4 7 15 11 15 13 0 26 -9 7 -11 10 -4
7 20 -10 1 22 -35 60 -28 30 -61 39 -75 20 -4 -6 -8 -2 -8 8 0 20 -11 22 -28
5 -9 -9 -12 -9 -12 0 0 7 -5 12 -11 12 -5 0 -7 -5 -3 -11 5 -8 -1 -10 -20 -7
-19 4 -26 1 -26 -10 0 -11 -3 -12 -13 -3 -8 6 -17 8 -21 4 -10 -11 -56 -11
-56 -1 0 5 -4 6 -10 3 -5 -3 -10 -1 -10 5 0 6 -4 9 -9 5 -8 -4 -8 35 -1 55 2
3 2 8 1 13 -1 6 18 11 46 10 6 0 9 6 6 15 -4 10 -2 13 5 8 7 -4 12 -3 12 3 0
5 9 8 20 6 11 -2 20 -1 20 3 0 11 64 8 72 -3 5 -6 8 -5 8 3 0 7 5 10 10 7 6
-4 7 -12 3 -18 -5 -8 -2 -8 9 0 8 7 19 9 23 5 5 -4 5 -1 1 6 -4 7 -13 9 -19 5
-7 -3 -3 4 8 17 11 13 14 20 8 16 -9 -5 -13 1 -13 18 0 14 -5 28 -12 32 -7 5
-8 3 -3 -7 5 -8 -1 -6 -12 4 -14 12 -23 15 -28 8 -3 -6 -11 -11 -16 -11 -6 0
-7 5 -4 10 3 6 4 10 1 10 -3 0 -8 -4 -11 -10z m-165 -84 c0 -2 -8 -10 -17 -17
-16 -13 -17 -12 -4 4 13 16 21 21 21 13z"/>
<path d="M3015 2340 c-4 -6 -11 -7 -17 -4 -7 4 -8 2 -4 -4 4 -7 2 -12 -4 -12
-8 0 -7 -6 1 -21 8 -17 8 -20 -1 -14 -8 5 -11 3 -8 -6 3 -8 11 -13 17 -11 6 1
11 -4 11 -10 0 -9 4 -8 10 2 8 12 10 12 10 1 0 -11 3 -11 15 -1 10 8 19 9 28
3 6 -6 21 -10 32 -9 11 1 28 -6 38 -16 11 -12 13 -18 5 -19 -7 -1 -2 -5 12 -9
18 -6 20 -8 7 -9 -11 -1 -15 -6 -11 -12 4 -8 0 -8 -15 0 -12 7 -26 9 -32 6 -5
-4 -17 -1 -25 6 -17 14 -85 19 -76 5 3 -5 -2 -7 -11 -3 -9 3 -19 1 -23 -5 -5
-7 -2 -8 6 -3 8 5 11 4 6 -3 -4 -6 -13 -9 -21 -6 -8 4 -18 -1 -21 -10 -3 -9
-10 -14 -14 -11 -5 3 -11 1 -15 -5 -3 -5 0 -10 7 -10 11 0 11 -2 0 -9 -7 -4
-14 -14 -15 -22 -2 -8 -7 -20 -11 -28 -7 -10 -5 -12 4 -6 9 5 10 2 5 -14 -4
-12 -2 -21 4 -21 6 0 11 -5 11 -11 0 -5 -6 -7 -12 -4 -7 4 -4 -1 7 -10 11 -9
19 -21 17 -26 -1 -6 2 -8 8 -4 5 3 13 -1 16 -10 5 -12 9 -13 20 -4 11 9 14 8
14 -5 0 -10 5 -14 10 -11 6 3 10 0 10 -7 0 -9 3 -9 10 2 5 8 10 11 10 6 0 -5
7 -3 15 4 13 11 14 10 9 -6 -7 -19 -7 -19 14 0 20 17 22 17 28 2 3 -9 12 -16
20 -16 8 0 14 -6 14 -12 0 -9 3 -9 9 1 7 11 10 10 14 -5 4 -18 5 -18 6 0 1 20
1 20 16 0 14 -18 14 -18 8 4 -3 12 -1 22 6 22 6 0 8 7 4 17 -5 12 -3 14 8 8
11 -6 11 -5 2 5 -12 13 -1 46 22 62 6 5 5 8 -3 8 -9 0 -10 5 -3 19 6 10 7 21
4 25 -3 3 0 6 7 6 7 0 10 3 7 7 -4 3 -1 13 6 21 10 13 9 14 -3 7 -13 -8 -13
-7 -1 8 7 9 10 17 6 17 -4 0 -1 8 6 17 12 14 12 16 0 8 -11 -6 -13 -4 -8 8 9
25 -10 70 -25 61 -9 -5 -8 -2 1 10 12 15 12 17 0 14 -8 -2 -13 3 -11 10 1 8
-2 11 -7 8 -5 -3 -14 1 -21 9 -7 8 -16 13 -20 10 -5 -3 -11 -1 -14 4 -4 5 -22
8 -41 5 -20 -2 -35 0 -35 6 0 5 -5 10 -11 10 -5 0 -8 -4 -5 -8 3 -5 -1 -9 -9
-9 -8 0 -12 4 -9 9 3 4 1 8 -5 8 -5 0 -13 -5 -16 -10z m163 -45 c-3 -3 -9 2
-12 12 -6 14 -5 15 5 6 7 -7 10 -15 7 -18z m-118 -155 c11 -5 29 -15 41 -21
15 -7 19 -7 14 0 -3 6 -1 11 4 11 6 0 11 -6 11 -12 0 -9 4 -8 11 2 9 12 9 11
4 -5 -4 -11 -10 -29 -13 -40 -7 -24 -32 -52 -32 -35 0 6 -5 8 -12 3 -18 -11
-32 -10 -40 2 -5 6 -8 5 -8 -3 0 -10 -4 -9 -16 2 -8 9 -19 14 -23 12 -4 -3 -8
10 -8 29 0 21 5 35 13 35 6 0 14 7 18 15 6 18 10 18 36 5z"/>
<path d="M3030 2129 c0 -5 5 -7 10 -4 6 3 10 8 10 11 0 2 -4 4 -10 4 -5 0 -10
-5 -10 -11z"/>
<path d="M3594 2265 c3 -8 2 -14 -2 -14 -21 3 -31 -3 -26 -16 4 -8 1 -15 -5
-15 -6 0 -10 -3 -10 -7 3 -20 -2 -34 -11 -28 -6 3 -7 -1 -4 -9 3 -9 1 -16 -4
-16 -6 0 -9 -9 -7 -21 3 -15 0 -19 -11 -15 -9 3 -12 2 -9 -5 4 -5 1 -16 -5
-24 -6 -8 -9 -19 -5 -25 3 -5 1 -10 -4 -10 -6 0 -11 -7 -11 -16 0 -9 -5 -12
-12 -8 -6 4 -8 3 -5 -3 3 -5 -3 -24 -13 -41 -11 -18 -22 -44 -25 -59 -2 -16
-11 -32 -18 -38 -24 -18 -28 -44 -7 -55 13 -7 20 -6 24 3 4 6 4 1 2 -11 -5
-23 -4 -24 16 -5 12 10 19 13 15 7 -3 -6 0 -11 8 -11 8 0 13 3 10 5 -3 3 1 12
8 20 10 13 9 14 -1 8 -11 -7 -11 -4 -1 12 7 12 16 19 19 17 4 -2 7 1 8 8 2 24
8 42 21 62 9 15 11 16 7 3 -3 -10 -1 -18 4 -18 6 0 10 5 10 11 0 5 5 7 10 4 6
-4 7 -12 3 -18 -4 -7 0 -6 10 2 9 7 17 9 17 4 0 -5 10 -9 22 -10 11 -1 25 -8
29 -15 7 -10 9 -10 9 2 0 9 3 11 8 5 8 -13 22 -13 41 -1 10 7 12 5 7 -5 -4 -8
-1 -7 6 3 11 12 18 14 32 6 10 -6 17 -7 14 -2 -6 12 28 44 38 36 4 -4 4 1 1
11 -4 9 -2 17 4 17 6 0 8 4 4 9 -3 5 0 13 6 17 8 5 9 3 4 -6 -6 -9 -4 -11 4
-5 8 4 11 21 9 40 -2 19 0 31 5 28 5 -3 4 4 -2 14 -6 11 -7 23 -4 27 3 3 1 6
-5 6 -7 0 -11 3 -11 8 4 23 -5 39 -29 57 -27 19 -27 19 -12 0 8 -11 -1 -5 -19
13 -19 18 -39 31 -45 29 -6 -2 -17 3 -24 12 -11 13 -12 13 -6 1 5 -10 0 -9
-14 4 -12 11 -22 16 -22 12 0 -4 -7 0 -16 8 -20 20 -38 21 -30 1z m74 -115 c8
-8 11 -9 7 -3 -4 9 -1 11 9 7 9 -3 13 -10 10 -15 -3 -5 2 -9 10 -9 8 0 22 -10
30 -22 12 -17 13 -25 3 -37 -10 -12 -9 -13 3 -6 12 7 13 6 3 -7 -7 -8 -10 -18
-6 -21 3 -4 -1 -7 -11 -7 -9 0 -15 -3 -12 -8 2 -4 -7 -12 -20 -19 -18 -8 -22
-8 -17 0 4 7 1 7 -9 -1 -9 -7 -18 -9 -20 -3 -1 5 -18 12 -36 14 -19 3 -37 9
-40 13 -4 4 1 4 11 1 16 -6 16 -5 1 18 -9 14 -12 25 -6 25 5 0 12 9 15 21 3
12 10 18 16 14 7 -3 8 0 5 9 -4 10 -1 16 7 16 11 0 11 3 -1 10 -13 8 -12 10 3
10 10 0 15 5 12 10 -10 16 18 7 33 -10z"/>
<path d="M642 2063 c5 -14 -40 -53 -46 -40 -4 7 -4 2 -2 -10 3 -19 1 -21 -15
-13 -14 8 -20 6 -29 -10 -12 -22 -5 -60 11 -60 6 0 7 -6 3 -12 -5 -10 -4 -10
6 -1 11 10 17 10 29 0 12 -10 14 -9 8 6 -4 10 -2 17 6 17 7 0 23 3 36 7 17 4
22 3 17 -5 -4 -7 -2 -12 4 -12 7 0 9 -7 6 -16 -3 -8 -2 -12 4 -9 6 3 10 -1 10
-10 0 -9 4 -14 8 -11 4 2 14 -5 22 -17 12 -21 12 -21 -6 -7 -10 8 -3 -3 16
-24 19 -22 28 -36 20 -32 -9 5 -8 2 2 -7 10 -8 15 -17 11 -20 -3 -4 1 -7 11
-7 9 0 15 -4 11 -9 -3 -6 5 -20 17 -32 20 -19 21 -21 4 -15 -19 7 -19 6 -2
-13 17 -18 16 -20 -3 -33 -12 -8 -18 -19 -13 -24 4 -4 -2 -2 -12 6 -16 12 -18
12 -11 1 6 -11 3 -13 -14 -8 -19 5 -20 3 -9 -11 11 -13 11 -15 -2 -10 -9 3
-25 -1 -35 -9 -16 -12 -16 -14 -3 -10 12 4 15 2 11 -9 -3 -7 0 -14 6 -14 6 0
11 -6 11 -14 0 -8 7 -16 15 -20 8 -3 15 -1 15 5 0 6 7 8 16 5 8 -3 12 -2 9 4
-3 6 -1 11 4 11 6 1 15 2 21 3 5 0 16 10 24 21 12 15 16 16 16 5 1 -8 7 -1 14
15 7 17 11 35 8 40 -3 6 2 4 11 -4 15 -12 17 -12 11 4 -4 10 -1 21 7 26 8 5 9
9 3 9 -7 0 -15 7 -18 16 -3 8 -2 12 3 9 5 -3 12 -1 16 5 3 5 1 10 -5 10 -6 0
-8 5 -5 10 3 6 -1 10 -9 10 -14 0 -22 24 -17 53 0 4 -7 7 -16 7 -9 0 -13 3
-10 7 4 3 -1 12 -11 20 -9 8 -11 11 -4 8 11 -6 12 -3 3 12 -6 11 -8 23 -5 26
3 3 -5 3 -18 0 -17 -3 -19 -2 -9 5 11 8 9 11 -8 17 -12 3 -19 10 -16 15 3 5
-2 15 -10 23 -8 9 -15 20 -15 26 0 6 -5 11 -11 11 -6 0 -9 7 -5 15 3 9 0 15
-8 15 -7 0 -20 8 -27 18 -13 16 -13 16 6 2 19 -14 20 -14 2 6 -9 11 -14 25
-10 29 5 5 -5 1 -21 -9 -16 -10 -26 -13 -22 -8 3 6 2 14 -4 17 -6 4 -9 3 -8
-2z"/>
<path d="M3849 2013 c-12 -14 -12 -16 1 -9 8 4 6 1 -4 -8 -10 -8 -23 -13 -27
-10 -5 3 -9 0 -9 -6 0 -7 9 -9 23 -6 12 3 16 3 9 0 -6 -3 -10 -10 -7 -15 4 -5
-2 -6 -11 -2 -13 5 -16 3 -11 -10 4 -10 -3 -23 -21 -37 -15 -12 -22 -19 -15
-16 8 5 8 0 0 -18 -7 -13 -15 -22 -18 -20 -10 6 -20 -26 -12 -38 3 -7 1 -8 -5
-4 -7 4 -12 2 -12 -3 0 -6 -9 -20 -20 -31 -12 -12 -15 -20 -7 -21 6 0 3 -4 -7
-8 -11 -4 -20 -17 -21 -29 -1 -12 0 -20 3 -17 2 2 13 -6 24 -18 11 -12 16 -15
12 -7 -7 13 -5 13 9 1 14 -11 20 -11 32 -1 9 7 14 19 11 27 -3 7 2 13 12 14 9
0 12 3 5 5 -8 4 -6 11 8 25 10 10 19 26 19 34 0 8 7 15 16 15 14 0 14 3 4 15
-11 13 -10 14 5 9 13 -5 16 -4 11 4 -4 7 -1 15 8 18 8 3 12 12 9 20 -4 10 0
12 13 7 13 -5 15 -3 9 8 -8 12 -6 12 8 1 9 -8 21 -11 27 -7 5 3 10 1 10 -4 0
-6 5 -11 11 -11 5 0 7 4 4 10 -3 6 1 7 9 4 9 -3 13 -10 10 -15 -4 -8 17 -14
38 -10 4 0 4 -7 1 -16 -5 -12 -3 -14 7 -8 9 5 11 4 6 -3 -4 -7 -14 -12 -22
-12 -8 0 -12 -4 -9 -10 6 -9 -8 -15 -29 -11 -5 1 -3 -6 5 -15 8 -10 10 -15 4
-12 -12 7 -36 -17 -27 -28 4 -4 -2 -4 -12 0 -16 5 -17 4 -6 -9 10 -12 9 -16
-4 -21 -9 -3 -13 -10 -10 -15 3 -6 0 -17 -8 -26 -11 -14 -11 -16 2 -8 13 8 13
7 1 -8 -9 -11 -10 -17 -2 -17 6 0 11 -5 11 -11 0 -5 -4 -8 -8 -5 -5 3 -9 -1
-9 -9 0 -8 5 -11 10 -8 6 4 8 0 4 -10 -3 -10 -3 -17 2 -17 5 0 14 -14 21 -30
7 -17 17 -33 23 -37 6 -4 7 -1 2 8 -4 8 2 4 15 -9 12 -13 29 -21 37 -18 8 3
11 2 8 -3 -3 -5 -1 -12 5 -16 5 -3 10 -1 10 5 0 6 5 8 12 4 15 -10 77 -11 71
-1 -4 6 12 11 30 8 4 0 7 6 7 15 0 14 3 14 15 4 13 -11 14 -10 9 5 -5 12 -4
16 3 12 6 -4 17 1 24 10 12 14 12 16 0 8 -10 -5 -12 -4 -7 3 4 7 15 12 24 12
15 0 15 2 2 10 -12 8 -10 10 10 10 14 0 20 3 14 8 -12 7 -1 52 12 52 3 0 3 -7
0 -16 -3 -8 -2 -12 3 -9 6 3 9 14 8 25 -1 10 -6 16 -12 12 -5 -3 -4 2 4 11 7
10 9 17 3 17 -11 0 -11 18 1 38 5 7 3 12 -3 12 -6 0 -9 4 -6 9 3 5 -1 14 -9
21 -8 7 -15 18 -15 26 0 7 -9 15 -19 19 -10 3 -21 14 -24 25 -4 14 -11 17 -27
13 -17 -5 -21 -3 -15 6 6 10 3 11 -15 1 -21 -11 -22 -10 -16 6 6 17 6 17 -12
1 -14 -13 -21 -14 -30 -5 -9 9 -12 9 -12 -1 0 -7 -4 -10 -9 -7 -5 4 -11 0 -14
-6 -2 -7 -4 0 -4 16 0 16 3 23 7 16 5 -7 9 0 12 19 3 23 1 30 -8 27 -7 -3 -15
2 -18 11 -4 9 -13 13 -22 9 -10 -4 -13 -2 -8 6 5 8 2 9 -10 5 -14 -6 -17 -3
-12 10 6 17 5 17 -7 1 -12 -15 -14 -15 -25 0 -8 11 -10 11 -5 2 6 -13 4 -13
-10 -1 -15 12 -15 31 -1 31 3 0 2 -5 -2 -12 -4 -7 -3 -8 5 -4 6 4 9 12 5 17
-3 5 -9 7 -14 4 -5 -3 -13 3 -19 12 -6 11 -11 13 -11 5 0 -10 -3 -10 -14 0 -8
7 -12 16 -9 21 8 14 -5 7 -18 -10z m279 -260 c2 -7 8 -13 13 -13 6 0 7 6 3 13
-4 6 2 4 14 -7 12 -10 19 -23 16 -27 -3 -5 1 -9 8 -10 10 0 10 -2 -1 -6 -11
-5 -11 -7 0 -14 11 -6 11 -11 2 -20 -6 -6 -9 -18 -6 -25 4 -10 0 -12 -10 -8
-12 4 -15 1 -12 -16 3 -17 0 -20 -12 -16 -13 5 -14 4 -3 -9 11 -13 10 -14 -5
-9 -13 5 -16 4 -11 -4 4 -7 1 -12 -8 -12 -8 0 -16 -5 -18 -11 -2 -6 -20 -12
-40 -13 -25 -1 -34 2 -31 11 4 9 0 11 -11 7 -10 -4 -18 0 -22 12 -3 11 -10 27
-15 36 -5 11 -5 19 1 23 6 3 10 15 10 26 0 10 4 19 9 19 5 0 12 12 15 26 4 15
10 24 13 21 3 -4 14 4 23 16 20 25 70 31 78 10z"/>
<path d="M2555 1969 c-4 -5 -13 -8 -21 -5 -7 3 -16 1 -19 -4 -3 -5 -14 -7 -25
-5 -11 2 -20 -1 -20 -7 0 -5 -7 -8 -15 -5 -8 4 -17 2 -21 -4 -3 -6 -12 -8 -20
-5 -8 3 -14 2 -14 -2 0 -9 -62 -46 -72 -44 -5 1 -8 -5 -8 -13 0 -12 -5 -13
-17 -7 -10 5 -24 7 -30 5 -7 -3 -13 0 -13 5 0 11 -55 25 -89 22 -14 -1 -21 2
-17 9 4 7 1 9 -8 5 -8 -3 -24 -1 -35 6 -16 8 -21 8 -21 -2 0 -8 -3 -9 -8 -3
-11 16 -34 17 -43 3 -6 -8 -9 -9 -9 -2 0 15 -132 14 -142 -1 -5 -6 -8 -5 -8 3
0 8 -5 10 -12 5 -7 -4 -31 -9 -53 -10 -21 -2 -42 -7 -45 -11 -3 -4 -15 -7 -27
-6 -13 1 -23 -2 -23 -5 0 -4 -9 -7 -20 -8 -11 -1 -34 -9 -50 -17 -19 -9 -28
-10 -23 -3 4 7 0 7 -10 -1 -9 -8 -22 -10 -28 -6 -7 4 -9 3 -6 -3 4 -6 -14 -18
-41 -28 -26 -10 -52 -22 -59 -27 -7 -5 -17 -7 -23 -3 -6 4 -9 1 -8 -7 2 -7 -3
-12 -9 -11 -7 2 -13 -2 -13 -8 0 -5 -5 -7 -10 -4 -6 3 -13 -1 -16 -9 -3 -9 -9
-14 -14 -11 -4 2 -16 -4 -26 -14 -11 -9 -26 -15 -33 -13 -9 3 -11 0 -6 -8 6
-10 4 -12 -9 -7 -9 4 -15 3 -12 -2 6 -9 -22 -26 -36 -23 -5 1 -8 -5 -8 -13 0
-8 -7 -15 -15 -15 -8 0 -15 -5 -15 -12 0 -6 -3 -9 -6 -5 -3 3 -17 -6 -30 -20
-13 -14 -24 -23 -24 -19 0 4 -6 1 -14 -6 -8 -7 -11 -17 -8 -22 3 -5 0 -6 -6
-2 -6 3 -13 2 -17 -4 -4 -6 -11 -8 -16 -5 -5 4 -9 -1 -9 -9 0 -9 -7 -16 -15
-16 -8 0 -15 -5 -15 -11 0 -5 -4 -7 -10 -4 -5 3 -10 2 -10 -2 0 -5 -9 -13 -19
-18 -115 -60 -159 -79 -178 -76 -13 1 -23 -3 -23 -9 0 -6 -6 -10 -12 -7 -7 2
-21 0 -30 -5 -13 -6 -18 -5 -18 4 0 9 -3 9 -12 0 -15 -15 -31 -16 -22 0 5 7 3
8 -7 2 -20 -12 -59 -16 -59 -6 0 4 -18 8 -39 7 -22 -1 -37 3 -35 7 5 8 -11 12
-30 9 -4 -1 -14 3 -20 9 -7 5 -16 7 -19 3 -4 -3 -7 0 -7 7 0 7 -3 10 -7 7 -3
-4 -12 -2 -20 4 -7 6 -13 8 -13 5 0 -4 -6 -1 -14 6 -8 7 -11 17 -8 22 3 5 0 6
-6 2 -6 -3 -13 -2 -17 4 -4 6 -10 8 -15 5 -5 -3 -11 3 -14 13 -6 18 -46 28
-46 11 0 -5 8 -9 18 -9 14 0 15 -2 2 -10 -8 -5 -10 -10 -4 -10 6 0 26 -13 45
-30 19 -16 39 -34 45 -39 7 -5 15 -7 18 -4 3 4 6 -2 6 -11 0 -13 6 -17 20 -13
10 3 20 1 22 -5 2 -5 12 -11 23 -12 11 -2 19 -8 18 -13 -1 -5 4 -10 12 -10 8
0 11 5 8 11 -3 6 0 5 8 -1 7 -7 21 -13 31 -13 10 0 18 -4 18 -8 0 -5 18 -8 41
-8 22 1 42 -1 44 -4 5 -9 129 0 165 12 8 3 38 13 65 22 28 10 59 19 69 22 11
2 22 8 25 12 3 5 16 12 29 16 12 4 22 12 22 17 0 6 4 8 9 4 5 -3 16 2 25 11 9
8 21 12 27 8 7 -4 9 -3 6 3 -4 6 7 16 23 23 17 7 30 17 30 22 0 5 5 6 10 3 6
-3 10 -1 10 4 0 6 6 11 13 11 6 0 25 11 41 25 16 13 33 22 37 19 5 -3 9 0 9 5
0 6 7 11 15 11 8 0 15 5 15 11 0 5 5 7 10 4 6 -3 10 -1 10 4 0 6 6 11 14 11 8
0 21 6 28 13 7 7 15 14 18 14 36 7 60 17 60 24 0 5 11 9 24 9 14 0 27 4 31 9
3 6 14 8 25 6 11 -2 19 1 17 7 -2 10 20 16 81 21 12 1 22 6 22 11 0 4 7 6 15
2 8 -3 15 -1 15 5 0 6 9 8 21 4 13 -4 19 -3 16 2 -4 5 0 10 8 10 8 0 12 -5 8
-10 -3 -5 4 -4 16 3 12 6 31 8 43 4 11 -3 18 -2 15 3 -4 6 14 7 44 3 27 -4 49
-3 49 1 0 4 9 5 20 2 11 -3 20 -10 20 -17 0 -7 3 -6 8 2 7 10 15 10 36 2 15
-5 32 -8 37 -4 5 3 12 -2 15 -11 6 -13 8 -14 15 -3 7 10 9 10 9 -2 0 -13 1
-13 10 0 8 12 10 10 10 -8 0 -16 4 -21 13 -16 7 5 6 1 -3 -10 -8 -10 -15 -25
-16 -34 -2 -8 -9 -19 -16 -23 -7 -5 -10 -9 -6 -9 4 0 3 -11 -2 -25 -7 -18 -6
-25 3 -25 9 0 8 -3 -1 -9 -8 -4 -13 -11 -13 -15 1 -3 1 -31 1 -61 0 -52 -1
-55 -25 -53 -14 1 -25 6 -25 11 0 4 -9 3 -20 -3 -15 -8 -20 -8 -20 2 0 9 -3 9
-12 0 -7 -7 -25 -12 -40 -12 -15 0 -28 -4 -28 -9 0 -5 -14 -12 -30 -16 -18 -4
-27 -11 -23 -18 4 -6 0 -8 -10 -4 -12 4 -14 2 -10 -11 3 -9 3 -14 -2 -10 -9 8
-35 -15 -35 -31 0 -6 -5 -11 -11 -11 -5 0 -8 -4 -5 -9 3 -5 0 -11 -7 -14 -28
-11 -52 -195 -30 -230 6 -10 10 -25 15 -64 1 -7 7 -14 14 -17 8 -3 11 -12 7
-22 -4 -12 -3 -15 5 -10 7 4 12 1 12 -9 0 -17 94 -114 113 -116 6 -1 16 -1 20
0 5 1 6 -2 4 -6 -3 -5 1 -14 9 -21 8 -7 14 -10 14 -6 0 3 7 1 15 -6 8 -7 15
-10 15 -7 0 3 15 0 34 -8 18 -8 36 -11 40 -8 3 4 6 2 6 -4 0 -5 10 -9 23 -8
12 1 28 -2 35 -8 6 -5 12 -6 12 -1 0 5 22 8 49 8 48 -2 124 14 149 29 6 5 17
5 22 2 6 -3 10 -1 10 5 0 6 5 8 10 5 6 -3 10 -1 10 5 0 6 5 8 10 5 6 -3 10 -2
10 4 0 5 10 13 22 17 27 8 144 125 153 153 3 12 11 21 16 21 5 0 8 3 7 8 0 4
8 27 20 52 11 24 18 48 16 52 -3 4 0 8 7 8 7 0 9 3 6 7 -4 3 -1 13 6 21 10 13
9 14 -2 7 -11 -6 -12 -5 -5 6 4 8 9 20 10 26 1 7 9 20 18 29 9 8 16 22 16 30
0 8 5 14 11 14 6 0 9 7 6 15 -4 8 -2 17 4 20 5 4 7 10 4 15 -3 5 -1 11 4 14 6
4 6 19 0 39 -18 65 -32 86 -70 111 -28 19 -37 31 -32 43 4 11 3 14 -6 9 -8 -6
-11 -2 -9 10 2 11 -2 18 -10 16 -6 -1 -12 1 -11 5 2 16 -14 53 -22 53 -5 0 -9
7 -9 15 0 8 -9 19 -20 25 -10 6 -17 16 -14 24 5 14 51 16 71 3 6 -4 15 -3 18
3 4 7 11 8 18 1 13 -10 16 -11 53 -11 17 0 23 -4 18 -12 -5 -8 -2 -9 10 -5 17
7 54 -9 68 -28 4 -5 8 -6 8 -2 0 4 10 2 23 -5 12 -7 25 -11 30 -10 4 1 7 -2 7
-6 0 -5 16 -14 35 -22 19 -8 35 -17 35 -21 0 -4 8 -9 18 -12 25 -8 75 -40 93
-59 9 -10 19 -15 22 -11 4 3 9 -1 13 -10 3 -9 12 -13 20 -10 8 3 14 1 14 -5 0
-9 35 -34 95 -67 11 -6 32 -19 46 -28 14 -9 29 -14 32 -10 4 3 7 1 7 -5 0 -7
7 -12 15 -12 8 0 15 -4 15 -10 0 -5 9 -10 20 -10 11 0 20 -5 20 -12 0 -6 3 -9
6 -5 3 3 26 -3 50 -13 24 -11 44 -16 44 -13 0 4 5 2 12 -5 7 -7 23 -12 36 -12
13 0 20 -4 17 -10 -3 -6 1 -7 9 -4 9 3 16 2 16 -2 0 -5 10 -9 23 -10 12 0 38
-4 57 -8 19 -4 40 -9 45 -10 6 -1 16 -5 23 -9 7 -5 12 -3 12 5 0 8 3 9 8 3 4
-6 18 -11 32 -13 65 -5 116 -10 125 -12 6 -1 12 -1 15 0 19 7 40 7 40 -1 0 -6
9 -5 21 2 17 9 20 8 14 -2 -5 -7 -4 -10 2 -6 21 13 75 18 68 6 -5 -8 -2 -8 11
-1 11 5 31 10 47 11 50 3 57 4 57 14 0 5 6 4 13 -2 8 -6 17 -8 21 -4 6 7 31
12 73 15 12 1 20 5 17 9 -2 4 4 8 13 8 16 0 48 6 63 11 3 1 8 2 13 1 4 0 7 4
7 10 0 5 4 8 9 4 5 -3 12 -1 16 4 3 6 13 7 22 4 11 -4 14 -3 9 5 -5 8 0 12 13
12 12 0 21 4 21 8 0 5 6 9 13 9 24 1 41 8 61 26 11 9 23 17 28 17 4 0 18 9 30
20 13 10 27 19 31 19 5 0 17 9 26 20 10 12 21 21 25 21 10 0 56 47 50 52 -2 3
7 11 21 18 14 7 25 16 25 20 0 4 11 19 25 34 14 15 25 34 25 42 0 8 5 12 10 9
6 -3 10 -1 10 6 0 7 7 20 16 30 8 9 17 25 18 34 1 9 10 25 19 36 9 10 16 23
16 27 -1 4 0 10 1 15 4 10 6 18 14 52 4 17 10 37 13 45 10 27 8 115 -2 126
-11 14 -28 7 -20 -7 4 -5 2 -9 -2 -9 -8 0 -13 -23 -16 -67 0 -7 -3 -13 -7 -13
-4 0 -7 -6 -8 -12 -3 -39 -9 -54 -22 -66 -13 -12 -13 -13 0 -6 13 7 13 5 1 -9
-7 -9 -10 -17 -7 -17 4 0 -4 -11 -18 -23 -14 -13 -23 -27 -19 -30 3 -4 1 -7
-6 -7 -7 0 -9 -4 -6 -10 3 -5 -1 -10 -9 -10 -8 0 -18 -5 -22 -12 -5 -7 -3 -8
5 -3 10 5 9 2 0 -13 -7 -12 -17 -18 -21 -16 -4 3 -8 1 -8 -5 0 -11 -89 -97
-96 -93 -3 2 -13 -6 -23 -17 -9 -11 -23 -21 -31 -23 -7 -2 -22 -11 -32 -20
-10 -10 -25 -18 -33 -18 -8 0 -15 -5 -15 -10 0 -6 -3 -9 -7 -9 -22 4 -33 -2
-27 -13 5 -8 2 -9 -9 -5 -9 3 -19 2 -22 -4 -4 -5 -11 -7 -16 -4 -5 4 -9 1 -9
-5 0 -7 -6 -10 -12 -7 -7 2 -28 -5 -46 -15 -19 -10 -30 -13 -27 -7 5 8 1 8
-15 -1 -12 -6 -28 -9 -36 -6 -8 3 -14 1 -14 -5 0 -6 -4 -7 -10 -4 -5 3 -16 3
-22 -1 -27 -17 -277 -25 -297 -10 -11 8 -13 8 -7 -1 4 -7 2 -13 -3 -13 -6 0
-11 4 -11 9 0 5 -9 7 -20 4 -11 -3 -27 0 -35 7 -12 10 -15 10 -15 0 0 -9 -4
-9 -12 -3 -13 10 -27 13 -85 15 -18 1 -30 5 -27 10 3 4 -5 8 -18 8 -13 0 -30
6 -37 13 -11 10 -12 9 -6 -3 6 -12 5 -13 -6 -2 -7 6 -21 12 -32 12 -10 0 -16
3 -14 8 3 4 -8 7 -23 8 -15 1 -43 12 -61 24 -18 13 -29 18 -25 11 6 -10 3 -10
-15 1 -13 7 -29 19 -37 26 -7 6 -16 12 -18 12 -3 0 -2 -6 1 -12 4 -7 -3 -2
-15 12 -12 14 -19 20 -15 13 3 -7 -12 0 -35 14 -22 15 -40 31 -40 35 0 5 -4 6
-10 3 -5 -3 -10 -1 -10 4 0 6 -3 10 -7 9 -8 -3 -37 19 -75 55 -10 9 -18 15
-18 12 0 -2 -12 7 -26 20 -15 14 -33 25 -41 25 -8 0 -11 5 -8 10 3 6 -1 10 -9
10 -9 0 -16 3 -16 8 0 4 -18 18 -40 32 -22 14 -40 28 -40 32 0 5 -5 8 -11 8
-6 0 -17 6 -24 13 -34 30 -43 35 -49 30 -3 -4 -6 -1 -6 5 0 7 -9 12 -20 12
-11 0 -20 7 -20 16 0 8 -4 13 -9 9 -5 -3 -12 -1 -16 5 -4 6 -10 8 -15 5 -4 -3
-13 2 -20 10 -7 8 -21 15 -32 15 -12 0 -17 4 -12 13 4 6 4 9 0 5 -4 -3 -25 0
-47 7 -21 8 -39 12 -39 10 0 -3 -12 1 -27 7 -16 6 -50 11 -78 12 -27 1 -55 5
-62 9 -6 4 -15 2 -18 -4z m-141 -480 c-3 -5 0 -9 5 -9 6 0 10 -3 10 -7 -4 -24
2 -53 10 -49 5 3 8 -12 7 -34 0 -22 2 -40 5 -40 3 0 4 -12 1 -27 -4 -23 -6
-24 -17 -10 -7 9 -14 14 -17 12 -3 -3 -11 8 -18 25 -7 16 -17 30 -22 30 -5 0
-7 4 -4 8 3 4 1 25 -4 45 -4 20 -4 37 0 37 5 0 7 8 6 18 -2 9 2 20 8 24 13 8
38 -11 30 -23z m-309 -119 c9 7 16 6 25 -5 7 -8 10 -15 6 -15 -3 0 8 -25 25
-56 37 -69 93 -125 156 -155 27 -12 51 -27 55 -33 7 -11 -61 -80 -70 -71 -2 2
-11 -3 -19 -11 -8 -8 -19 -12 -24 -9 -5 4 -9 1 -9 -6 0 -7 -3 -9 -7 -6 -3 4
-13 1 -21 -6 -13 -10 -14 -9 -7 2 6 10 4 12 -6 5 -18 -11 -109 -13 -109 -2 0
4 -11 8 -25 8 -14 0 -25 5 -25 11 0 5 -5 7 -10 4 -6 -3 -13 1 -16 9 -3 9 -12
16 -18 16 -7 0 -19 12 -27 28 -8 15 -20 33 -27 41 -7 7 -10 22 -7 32 4 11 2
19 -4 19 -6 0 -11 14 -11 31 0 21 4 28 13 23 9 -6 9 -4 -1 8 -8 10 -9 18 -3
22 6 4 7 14 4 23 -4 9 -2 14 3 10 6 -3 18 5 28 18 10 14 23 22 29 18 6 -3 7
-1 3 6 -4 6 0 13 11 17 10 3 29 12 43 19 15 8 26 10 28 4 3 -6 9 -6 17 1z"/>
</g>
</svg>
